# xmcd
#
# Track frame offsets: 
#        150
#        21880
#        42875
#        58181
#        86396
#        104748
#        127401
#        147783
#        167066
#        185708
#        210263
#        239953
#        259614
#        274506
#        295891
#        313669
#        333391
#
# Disc length: 4645 seconds
#
# Revision: 0
# Processed by: cddbd v1.5.2PL0 Copyright (c) Steve Scherf et al.
# Submitted via: ExactAudioCopy v1.3
#
DISCID=08122311
DTITLE=Dana Gillespie - What Memories We Make - The Complete MainMan R
DTITLE=ecordings 1971-1974 [disk 2]
DYEAR=2019
DGENRE=Blues, Rock
TTITLE0=Ain't Gonna Play No Second Fiddle
TTITLE1=Really Love The Man
TTITLE2=Hold Me Gently
TTITLE3=Don't Mind Me
TTITLE4=Pack Your Bags
TTITLE5=No Tail To Wag
TTITLE6=Get My Rocks Off
TTITLE7=Wanderlust
TTITLE8=Getting Through To Me
TTITLE9=Never Knew
TTITLE10=Man Size Job (Outtake)
TTITLE11=Stoke The Engine
TTITLE12=Goin' Crazy With The Blues
TTITLE13=Say Goodnight To The Night
TTITLE14=Do The Spin
TTITLE15=Gone At The Game
TTITLE16=Andy Warhol (Original Demo)
EXTD=
EXTT0=
EXTT1=
EXTT2=
EXTT3=
EXTT4=
EXTT5=
EXTT6=
EXTT7=
EXTT8=
EXTT9=
EXTT10=
EXTT11=
EXTT12=
EXTT13=
EXTT14=
EXTT15=
EXTT16=
PLAYORDER=
